<svg xmlns="http://www.w3.org/2000/svg" viewBox="0 0 512 354.7"><defs><style>.cls-1{isolation:isolate;}.cls-2,.cls-3{fill:#7229b5;}.cls-2{opacity:0.27;}.cls-13,.cls-4,.cls-5,.cls-6{fill:none;}.cls-4,.cls-5{stroke:#7229b5;}.cls-4,.cls-7{stroke-miterlimit:10;}.cls-13,.cls-5,.cls-6{stroke-linecap:round;stroke-linejoin:round;}.cls-6{stroke:#fff;}.cls-12,.cls-7{fill:#faad3b;}.cls-13,.cls-7{stroke:#6a26a8;}.cls-14,.cls-15,.cls-8{mix-blend-mode:multiply;}.cls-8{opacity:0.75;}.cls-9{fill:#f5e073;}.cls-10{fill:#6a26a8;}.cls-11{fill:#e3c940;}.cls-15{opacity:0.49;}.cls-16{fill:#e8a137;}.cls-17{fill:#ededed;}.cls-18{fill:#edd349;}.cls-19{fill:#62239c;}.cls-20{fill:#5a208f;}</style></defs><g class="cls-1"><g id="OBJECTS"><path class="cls-2" d="M152.79,446.44c3.06,2.28,8.43,3.92,13.73,5.48H607.36a16.19,16.19,0,0,0,1.94-1.37c3.87-3.21,5.9-8.07,7.64-12.79,8.36-22.78,12.89-47.34,10-71.43S613.09,318.65,594.51,303c-9.48-8-20.72-13.74-29.61-22.36-27.3-26.45-27.68-74.43-59-96-14.43-9.92-32.92-12.05-50.4-10.89-16.32,1.08-32.71,4.85-46.84,13.1-14.76,8.62-26.33,21.62-38.59,33.52C345.48,244.31,315.63,265,281.61,269c-21.64,2.52-43.54-1.9-65.29-.57a124.57,124.57,0,0,0-66.1,24.08c-12.24,9.07-23,20.78-28.31,35.05-7.86,21.12-2.9,44.8,4.7,66C131.85,408.21,140,436.93,152.79,446.44Z" transform="translate(-117.93 -117.61)"/><path class="cls-2" d="M596.48,386.31c-11.59,21.74-23.27,43.44-34.87,65.17-1.56,2.93-3.22,6-6,7.83-3.55,2.41-8.15,2.38-12.43,2.25q-34.79-1-69.52-1.29l-160.2-1.46-71.88-.66c-15.67-.14-31.26.46-46.9.51-7.95,0-16.39-1.5-22.27-6.86-4.89-4.45-7.34-10.92-9.47-17.18A399.85,399.85,0,0,1,142.53,330.1c-1.82-30.48,5-61.28,29.38-81.79,9.1-7.65,19.89-13.19,28.42-21.47,26.21-25.39,26.57-71.45,56.65-92.12,13.85-9.52,31.6-11.56,48.38-10.45,15.67,1,31.4,4.66,45,12.58,14.16,8.27,25.27,20.75,37,32.18,23.59,22.9,52.25,42.79,84.91,46.6,20.77,2.42,41.8-1.82,62.67-.55a119.53,119.53,0,0,1,63.46,23.12c11.74,8.71,22.07,19.94,27.17,33.64,11.14,29.94-1,61.34-15.06,88Q603.53,373.09,596.48,386.31Z" transform="translate(-117.93 -117.61)"/><path class="cls-3" d="M509.81,393.31s17.48,9.86,17.19,3.44c-.26-5.75-13.85-4-16.68-3.52Z" transform="translate(-117.93 -117.61)"/><path class="cls-3" d="M510,393.1s9.85-17.48,3.43-17.19S510,393.1,510,393.1Z" transform="translate(-117.93 -117.61)"/><path class="cls-3" d="M498.89,401s17.48,9.85,17.19,3.43S498.89,401,498.89,401Z" transform="translate(-117.93 -117.61)"/><path class="cls-3" d="M498.84,401s9.86-17.48,3.43-17.19S498.84,401,498.84,401Z" transform="translate(-117.93 -117.61)"/><path class="cls-3" d="M490.14,408.66s15.34,8.65,15.09,3S490.14,408.66,490.14,408.66Z" transform="translate(-117.93 -117.61)"/><path class="cls-3" d="M490.2,408.8s8.65-15.33,3-15.08S490.2,408.8,490.2,408.8Z" transform="translate(-117.93 -117.61)"/><path class="cls-3" d="M482.41,417s15.29,6.18,14.38,1S482.41,417,482.41,417Z" transform="translate(-117.93 -117.61)"/><path class="cls-3" d="M482.65,417.23s6.19-15.29,1-14.37S482.65,417.23,482.65,417.23Z" transform="translate(-117.93 -117.61)"/><path class="cls-3" d="M475.76,426.08s16.38,2,14.15-2.77S475.76,426.08,475.76,426.08Z" transform="translate(-117.93 -117.61)"/><path class="cls-3" d="M476,426.06s2-16.37-2.77-14.14S476,426.06,476,426.06Z" transform="translate(-117.93 -117.61)"/><path class="cls-3" d="M470.55,434.85s14.19,1.75,12.26-2.4S470.55,434.85,470.55,434.85Z" transform="translate(-117.93 -117.61)"/><path class="cls-3" d="M470.9,434.92s1.76-14.19-2.4-12.26S470.9,434.92,470.9,434.92Z" transform="translate(-117.93 -117.61)"/><path class="cls-3" d="M467.06,441.9s12.13,1.5,10.48-2S467.06,441.9,467.06,441.9Z" transform="translate(-117.93 -117.61)"/><path class="cls-3" d="M467.43,442s1.5-12.12-2.05-10.47S467.43,442,467.43,442Z" transform="translate(-117.93 -117.61)"/><path class="cls-3" d="M509,393.84s19.22-7.86,17.2-11.43S509,393.84,509,393.84Z" transform="translate(-117.93 -117.61)"/><path class="cls-4" d="M512.84,391.41s-42.31,22-51.11,69.48" transform="translate(-117.93 -117.61)"/><path class="cls-3" d="M204.07,342.73s-34.69.37-28.9-9.12c5.18-8.5,24.27,5.54,28.19,8.56Z" transform="translate(-117.93 -117.61)"/><path class="cls-3" d="M204,342.26s-.37-34.69,9.11-28.9S204,342.26,204,342.26Z" transform="translate(-117.93 -117.61)"/><path class="cls-3" d="M214.21,363.46s-34.69.37-28.9-9.12S214.21,363.46,214.21,363.46Z" transform="translate(-117.93 -117.61)"/><path class="cls-3" d="M214.27,363.55s-.37-34.69,9.11-28.9S214.27,363.55,214.27,363.55Z" transform="translate(-117.93 -117.61)"/><path class="cls-3" d="M221.07,382.36s-30.43.33-25.35-8S221.07,382.36,221.07,382.36Z" transform="translate(-117.93 -117.61)"/><path class="cls-3" d="M220.87,382.53s-.33-30.44,8-25.36S220.87,382.53,220.87,382.53Z" transform="translate(-117.93 -117.61)"/><path class="cls-3" d="M225.83,401.46s-28.32-3.37-22.6-10.49S225.83,401.46,225.83,401.46Z" transform="translate(-117.93 -117.61)"/><path class="cls-3" d="M225.29,401.59s3.37-28.32,10.49-22.6S225.29,401.59,225.29,401.59Z" transform="translate(-117.93 -117.61)"/><path class="cls-3" d="M204.8,344.18s-22.57-27.93-16.53-31.65S204.8,344.18,204.8,344.18Z" transform="translate(-117.93 -117.61)"/><path class="cls-5" d="M201.06,337.32s28,42,27.64,98.16" transform="translate(-117.93 -117.61)"/><path class="cls-3" d="M496.3,236.19s20.14,28.25,24.39,18c3.81-9.2-18.77-16.35-23.52-17.74Z" transform="translate(-117.93 -117.61)"/><path class="cls-3" d="M496.73,236s28.25-20.14,18-24.39S496.73,236,496.73,236Z" transform="translate(-117.93 -117.61)"/><path class="cls-3" d="M473.57,240.21s20.14,28.25,24.4,18S473.57,240.21,473.57,240.21Z" transform="translate(-117.93 -117.61)"/><path class="cls-3" d="M473.47,240.21s28.25-20.13,18-24.39S473.47,240.21,473.47,240.21Z" transform="translate(-117.93 -117.61)"/><path class="cls-3" d="M454.26,245.79s17.66,24.79,21.39,15.78S454.26,245.79,454.26,245.79Z" transform="translate(-117.93 -117.61)"/><path class="cls-3" d="M454.24,246.06S479,228.39,470,224.66,454.24,246.06,454.24,246.06Z" transform="translate(-117.93 -117.61)"/><path class="cls-3" d="M436,253.2s19.4,20.9,21.79,12.08S436,253.2,436,253.2Z" transform="translate(-117.93 -117.61)"/><path class="cls-3" d="M436.23,253.72s20.91-19.41,12.09-21.79S436.23,253.72,436.23,253.72Z" transform="translate(-117.93 -117.61)"/><path class="cls-3" d="M419,262.51s24.15,15.17,24.17,6S419,262.51,419,262.51Z" transform="translate(-117.93 -117.61)"/><path class="cls-3" d="M419.31,262.63s15.17-24.15,6-24.17S419.31,262.63,419.31,262.63Z" transform="translate(-117.93 -117.61)"/><path class="cls-3" d="M404.37,272.41s20.94,13.16,21,5.24S404.37,272.41,404.37,272.41Z" transform="translate(-117.93 -117.61)"/><path class="cls-3" d="M404.87,272.79s13.16-20.93,5.24-21S404.87,272.79,404.87,272.79Z" transform="translate(-117.93 -117.61)"/><path class="cls-3" d="M393.74,280.9s17.88,11.23,17.9,4.47S393.74,280.9,393.74,280.9Z" transform="translate(-117.93 -117.61)"/><path class="cls-3" d="M394.24,281.36s11.23-17.89,4.47-17.9S394.24,281.36,394.24,281.36Z" transform="translate(-117.93 -117.61)"/><path class="cls-3" d="M494.7,236.45s35.87,1.79,35.31-5.28S494.7,236.45,494.7,236.45Z" transform="translate(-117.93 -117.61)"/><path class="cls-4" d="M502.44,235.43s-82.39,3.47-131,71.28" transform="translate(-117.93 -117.61)"/><path class="cls-3" d="M316.32,316.2c1.26-.54-9.12-31-9.79-32.63-10.06-24.08-25.08-43.68-43.26-56.37-33.59-23.44-72.83-21-110.51-12,4.67.12,8.9,3.06,12.72,6.37,25,21.7,38.27,61.28,64.05,81.43C254.52,322.5,287.17,328.76,316.32,316.2Z" transform="translate(-117.93 -117.61)"/><path class="cls-6" d="M301.39,309.6S255.08,229.87,172,218.92" transform="translate(-117.93 -117.61)"/><polyline class="cls-6" points="108.23 98.95 116.66 124.2 74.85 125.98"/><polyline class="cls-6" points="140.23 119.95 148.45 149.13 113.3 150.97"/><polyline class="cls-6" points="168.72 146.8 173.22 176.91 137.62 173.65"/><polygon class="cls-7" points="208.87 190.95 203.14 205.5 165.31 301.59 161.38 287.35 157.19 243.48 173.36 195.69 208.87 190.95"/><g class="cls-8"><polygon class="cls-9" points="203.14 205.5 165.31 301.59 161.38 287.35 199.15 204.65 203.14 205.5"/></g><polygon class="cls-7" points="338.06 260.53 333.06 285.67 329.9 301.59 292.07 205.5 286.33 190.95 321.84 195.69 338.06 260.53"/><g class="cls-8"><polygon class="cls-9" points="333.06 285.67 329.9 301.59 292.07 205.5 296.06 204.65 333.06 285.67"/></g><path class="cls-9" d="M323.31,378.64a.51.51,0,0,1-.35-.15.47.47,0,0,1-.15-.35c0-.81,0-1.62-.05-2.43l0-1.19,0-.71c0-.42,0-.83-.06-1.24-.05-.94-.1-1.87-.14-2.8-.12-1.67-.25-3.33-.4-5l0-.25c0-.18,0-.36,0-.55l0-1.1,0-.59c0-.43,0-.85-.06-1.28l-.15-2.8c-.11-1.67-.24-3.32-.39-5l-.12-1.43-.17-1.61c0-.54-.1-1-.16-1.49l-.07-.68c-.06-.57-.12-1.14-.2-1.71l-.07-.58-.19-1.48c-.06-.49-.12-1-.18-1.43l0-.27c-.06-.4-.12-.8-.17-1.18l-.27-1.89c-.05-.3-.09-.6-.14-.9-.07-.48-.14-.92-.22-1.37-.21-1.36-.43-2.67-.65-4-.06-.37-.12-.71-.19-1.07-.14-.81-.29-1.59-.43-2.37l-.11-.57c-.11-.57-.22-1.12-.33-1.67-.23-1.2-.47-2.35-.69-3.44-13.19-1.27-27.8-7.94-28-8a.51.51,0,0,1-.25-.66l18-41.17c4.08-6.5,20.17-11.51,33-14.58,6.42-1.53,11.55-2.46,12.67-2.66a.46.46,0,0,1,.2-.05l13.22,1.21L379.45,257a.54.54,0,0,1,.22.05c2.61.45,39.16,6.95,45.56,17.17l18.07,41.24a.51.51,0,0,1-.25.66c-.15.07-15.26,7-28.61,8.08-5.7,21.9-5.36,52.3-5.36,52.61a.5.5,0,0,1-.49.5l-12.56.19-18.93.3-22.06.34-2.61,0Z" transform="translate(-117.93 -117.61)"/><path class="cls-10" d="M379.45,257.51v0c.13,0,38.92,6.7,45.36,17l18,41.18s-15.29,7-28.79,8.06c-5.88,22.25-5.47,53.09-5.47,53.09L396,377l-18.93.31-22.06.34-2.61,0-11.52.18-17.59.28c0-.81,0-1.63-.05-2.45q0-.65,0-1.26c0-.65-.05-1.27-.09-1.9-.05-.93-.1-1.85-.14-2.78-.12-1.68-.25-3.35-.4-5,0-.26-.05-.51-.06-.77s0-.75,0-1.1c0-.64-.05-1.27-.09-1.89l-.15-2.8c-.11-1.68-.24-3.34-.39-5,0-.47-.08-.94-.12-1.43s-.11-1.08-.17-1.61-.1-1-.16-1.5c-.09-.81-.17-1.6-.27-2.39,0-.2-.05-.4-.08-.59l-.18-1.48c-.06-.49-.12-1-.19-1.43s-.14-1-.2-1.44-.14-1-.21-1.42-.13-.93-.21-1.39-.14-.92-.22-1.37c-.21-1.36-.43-2.67-.65-4-.06-.37-.12-.73-.19-1.08-.17-1-.36-2-.54-2.94-.11-.57-.22-1.13-.33-1.67-.26-1.34-.52-2.61-.77-3.81-13.35-1.18-28.15-8-28.15-8l18-41.18c4-6.4,20.66-11.42,32.62-14.3,7.18-1.7,12.68-2.65,12.73-2.67v0l.3,0,12.88,1.17,13.64-1.21m-26.82-1a1.1,1.1,0,0,0-.36.07c-1.3.23-6.36,1.16-12.61,2.65-12.88,3.09-29.11,8.16-33.24,14.73,0,.05-.05.09-.07.13l-18,41.18a1,1,0,0,0,.5,1.31c.6.28,14.58,6.67,27.74,8,.2,1,.41,2,.62,3.08.11.57.22,1.11.33,1.66l.11.6c.14.76.29,1.54.42,2.32.08.38.13.72.19,1.08.22,1.29.44,2.6.65,4,.08.46.15.9.22,1.36s.1.61.14.9l.07.5.11.71.1.7c.05.39.11.8.17,1.22l0,.22c.07.46.13.94.19,1.42l.06.48.12,1c0,.13,0,.22,0,.31s0,.21,0,.31c.07.54.13,1.1.19,1.67l.08.69c.05.45.1.91.14,1.37v.11c0,.28.06.55.09.82l.09.82.06.71.05.69c.15,1.67.28,3.34.39,5l.15,2.78c0,.43.05.85.06,1.27l0,.61,0,.8V364c0,.2,0,.39,0,.57l0,.25c.14,1.49.27,3.12.4,5,0,.9.09,1.84.14,2.77,0,.42.05.84.06,1.27l0,.61,0,1.25c0,.91.05,1.69.05,2.42a1,1,0,0,0,.3.71,1,1,0,0,0,.7.29h0l17.59-.27,11.52-.18,2.6,0,22.07-.34L396,378l12.56-.19a1,1,0,0,0,1-1c0-.3-.33-30.33,5.26-52.14,13.33-1.2,27.8-7.8,28.42-8.09a1,1,0,0,0,.5-1.31l-18-41.18s-.05-.08-.07-.13c-6.51-10.37-43-16.89-45.88-17.38a1,1,0,0,0-.34-.06h-.08l-13.55,1.19L353,256.55l-.29,0Z" transform="translate(-117.93 -117.61)"/><path class="cls-11" d="M377.09,377.32l-22.06.34-2.61,0-29.11.46c0-.81,0-1.63-.05-2.45q0-.65,0-1.26c0-.65-.05-1.27-.09-1.9-.05-.93-.1-1.85-.14-2.78-.12-1.68-.25-3.35-.4-5,0-.26-.05-.51-.06-.77s0-.75,0-1.1c0-.64-.05-1.27-.09-1.89l-.15-2.8c-.11-1.68-.24-3.34-.39-5,0-.47-.08-.94-.12-1.43s-.11-1.08-.17-1.61-.1-1-.16-1.5c-.09-.81-.17-1.6-.27-2.39,0-.2-.05-.4-.08-.59l-.18-1.48c-.06-.49-.12-1-.19-1.43s-.14-1-.2-1.44-.14-1-.21-1.42-.13-.93-.21-1.39-.14-.92-.22-1.37c-.21-1.36-.43-2.67-.65-4-.06-.37-.12-.73-.19-1.08-.17-1-.36-2-.54-2.94-.11-.57-.22-1.13-.33-1.67-.26-1.34-.52-2.61-.77-3.81C317.39,323.68,345.67,360.07,377.09,377.32Z" transform="translate(-117.93 -117.61)"/><path class="cls-12" d="M379.45,229.93V260.2s-3.17,2.39-10.34,2.81c-.7.05-1.45.07-2.23.07a36.44,36.44,0,0,1-11-1.55,16.5,16.5,0,0,1-3.23-1.33v-27Z" transform="translate(-117.93 -117.61)"/><g class="cls-8"><path class="cls-9" d="M369.11,263c-.7.05-1.45.07-2.23.07a36.44,36.44,0,0,1-11-1.55,16.5,16.5,0,0,1-3.23-1.33V235.32l10.76,5.17S361,255.19,369.11,263Z" transform="translate(-117.93 -117.61)"/></g><polyline class="cls-13" points="234.69 142.6 234.69 115.53 261.52 112.31 261.52 142.6"/><path class="cls-7" d="M333.73,201c.33,4.72-1.56,8.69-4.24,8.89s-5.12-3.48-5.46-8.19,1.56-8.7,4.24-8.89S333.39,196.26,333.73,201Z" transform="translate(-117.93 -117.61)"/><g class="cls-14"><g class="cls-8"><path class="cls-9" d="M325.84,199.48a2.18,2.18,0,0,1,2.66-.21,4.53,4.53,0,0,1,1.67,2.77.58.58,0,0,1-1.12.31,4.54,4.54,0,0,0-.82-1.8,1.11,1.11,0,0,0-1.56-.25c-.54.53-1.36-.3-.83-.82Z" transform="translate(-117.93 -117.61)"/></g></g><path class="cls-7" d="M397.7,201c-.34,4.72,1.56,8.69,4.23,8.89s5.12-3.48,5.46-8.19-1.55-8.7-4.23-8.89S398,196.26,397.7,201Z" transform="translate(-117.93 -117.61)"/><g class="cls-14"><g class="cls-8"><path class="cls-9" d="M405.58,199.48a2.18,2.18,0,0,0-2.66-.21,4.52,4.52,0,0,0-1.66,2.77.58.58,0,0,0,1.12.31,4.53,4.53,0,0,1,.81-1.8,1.12,1.12,0,0,1,1.57-.25c.54.53,1.36-.3.82-.82Z" transform="translate(-117.93 -117.61)"/></g></g><path class="cls-12" d="M366.84,243.16a33.7,33.7,0,0,1-14.43-3.26c-.68-.33-1.29-.64-1.85-1-.92-.51-1.88-1.12-2.93-1.84-8.33-5.84-14.18-15.51-16.9-28a83.33,83.33,0,0,1-1.68-18c0-1.55,0-3.07,0-4.52v-.14l0,0c.84-15.31,8-28.72,19.23-35.91.76-.49,1.54-1,2.31-1.36a30.45,30.45,0,0,1,14.08-3.84l.93,0a32.23,32.23,0,0,1,17.73,5.46c10,6.57,17.15,18.54,19.11,32l.05.5A50.6,50.6,0,0,1,403,189c0,1.34,0,2.66,0,3.94l-.06,1.86a88.94,88.94,0,0,1-1.3,12.48C399,222.12,392.12,233.4,382.41,239a20.51,20.51,0,0,1-2.55,1.37l-.3-.41.2.45-.11.06a31,31,0,0,1-11.75,2.65C367.54,243.16,367.19,243.16,366.84,243.16Z" transform="translate(-117.93 -117.61)"/><path class="cls-10" d="M365.67,145.83a31.63,31.63,0,0,1,17.46,5.37c9.73,6.4,16.89,18,18.88,31.68l.05.48a49.31,49.31,0,0,1,.47,5.63c0,1.33,0,2.63,0,3.92l-.06,1.85a88.1,88.1,0,0,1-1.29,12.4c-2.8,15.35-9.73,26-19,31.43a20.31,20.31,0,0,1-2.51,1.35l-.2.09a30.48,30.48,0,0,1-11.57,2.62h-1a32.7,32.7,0,0,1-8.38-1.08,32.13,32.13,0,0,1-5.83-2.13c-.61-.29-1.22-.6-1.82-.94-1-.56-1.94-1.16-2.89-1.82-7.74-5.42-13.85-14.61-16.7-27.66a82.21,82.21,0,0,1-1.67-17.87c0-1.51,0-3,0-4.5,0,0,0,0,0,0,.82-15.45,8.25-28.73,19-35.63.74-.49,1.5-.93,2.27-1.34a30.17,30.17,0,0,1,13.86-3.79l.92,0m0-1h0l-.95,0a31,31,0,0,0-14.31,3.91c-.77.41-1.56.87-2.33,1.38-11.33,7.26-18.6,20.81-19.46,36.26a1,1,0,0,0,0,.26c-.07,1.4-.08,2.94,0,4.52a83.53,83.53,0,0,0,1.69,18.06c2.75,12.58,8.67,22.35,17.11,28.26a32.94,32.94,0,0,0,3,1.88c.57.32,1.19.64,1.88,1a34.33,34.33,0,0,0,14.64,3.31c.35,0,.71,0,1.07,0a31.47,31.47,0,0,0,11.95-2.7l.11-.05.07,0a21.6,21.6,0,0,0,2.66-1.42c9.8-5.68,16.72-17.08,19.46-32.09a89.77,89.77,0,0,0,1.31-12.55l.06-1.85c0-1.31,0-2.63,0-4a49.89,49.89,0,0,0-.48-5.76l-.05-.44c-2-13.65-9.2-25.75-19.32-32.4a32.79,32.79,0,0,0-18-5.54Z" transform="translate(-117.93 -117.61)"/><path class="cls-13" d="M364.83,196.82s2.46,8.42.42,13.19a1.45,1.45,0,0,0,1.17,2,9,9,0,0,0,6.18-1.8" transform="translate(-117.93 -117.61)"/><path class="cls-13" d="M364.33,219.79a12.64,12.64,0,0,0,13.78-3.22" transform="translate(-117.93 -117.61)"/><path class="cls-13" d="M376.77,185.54s6.6-1.93,9.78.93" transform="translate(-117.93 -117.61)"/><path class="cls-13" d="M347.64,185.54s6.6-1.93,9.78.93" transform="translate(-117.93 -117.61)"/><g class="cls-8"><path class="cls-9" d="M367.88,242.65a33.05,33.05,0,0,1-9.42-1.07,32.13,32.13,0,0,1-5.83-2.13c-.61-.29-1.22-.6-1.82-.94-1-.56-1.94-1.16-2.89-1.82-7.74-5.42-13.85-14.61-16.7-27.66a82.21,82.21,0,0,1-1.67-17.87c0-1.51,0-3,0-4.5,0,0,0,0,0,0,.82-15.45,8.25-28.73,19-35.63l2.7,11.22s-13.26,51.92,1.31,72.35A18.69,18.69,0,0,0,367.88,242.65Z" transform="translate(-117.93 -117.61)"/></g><g class="cls-15"><path class="cls-16" d="M391.41,209.67a6.39,6.39,0,1,1-4.75-7.7A6.4,6.4,0,0,1,391.41,209.67Z" transform="translate(-117.93 -117.61)"/><path class="cls-16" d="M353.06,210.67a6.39,6.39,0,1,1-4.75-7.69A6.39,6.39,0,0,1,353.06,210.67Z" transform="translate(-117.93 -117.61)"/></g><path class="cls-3" d="M382.52,194.07c0,2.53-1.38,4.66-3.08,4.77s-3.07-1.85-3.07-4.37,1.38-4.67,3.08-4.78S382.52,191.54,382.52,194.07Z" transform="translate(-117.93 -117.61)"/><path class="cls-3" d="M356.7,193.91c.14,2.52-1.12,4.73-2.81,4.93s-3.17-1.68-3.3-4.2,1.12-4.74,2.81-4.94S356.57,191.39,356.7,193.91Z" transform="translate(-117.93 -117.61)"/><path class="cls-3" d="M346.84,255.84h-.12c-.45-.11-11.2-2.84-19.05-15.92-9.66-16.11-10.5-40-2.49-71,.57-2.18,1.19-4.35,1.84-6.42.13-.52.27-1.06.43-1.61a56,56,0,0,1,7.31-15.83c3.09-4.77,6.62-8.16,10.48-10.06a34,34,0,0,1,17.82-4.64,51.48,51.48,0,0,1,9.4.91c0-.14,0-.28,0-.42a12.74,12.74,0,1,1,19.39,10.88c16.18,17.74,11.86,50.78,11.81,51.12a.45.45,0,0,1-.21.34.47.47,0,0,1-.28.09H403c-.19-.05-18.31-4.63-20.77-27.51-2.26,6.5-11.3,20.06-47.48,26.83-2,20.62-1.41,48,12.41,62.41a.5.5,0,0,1,.07.59A.48.48,0,0,1,346.84,255.84Z" transform="translate(-117.93 -117.61)"/><path class="cls-10" d="M385.19,118.61a12.25,12.25,0,0,1,5.85,23c16.72,17.65,12.12,51.17,12.12,51.17s-19.8-4.71-20.64-30.64c0,0-.08,21.13-48.19,30-2,20.14-1.75,48.36,12.51,63.18,0,0-40.92-9.89-21.17-86.29.58-2.27,1.2-4.39,1.83-6.4.13-.54.27-1.08.43-1.61a55.35,55.35,0,0,1,7.24-15.69c3.22-5,6.69-8.13,10.29-9.9a33.38,33.38,0,0,1,17.6-4.59,52,52,0,0,1,9.65,1l.29.07c0-.34-.05-.69-.05-1a12.24,12.24,0,0,1,12.24-12.24m0-1A13.26,13.26,0,0,0,372,130.67a51.81,51.81,0,0,0-8.89-.81A34.51,34.51,0,0,0,345,134.57c-3.93,2-7.51,5.39-10.65,10.24A56.36,56.36,0,0,0,327,160.75c-.14.49-.29,1-.44,1.63-.65,2.08-1.27,4.24-1.83,6.42-8.05,31.13-7.19,55.14,2.55,71.36,7.95,13.27,18.89,16,19.35,16.15l.24,0a1,1,0,0,0,.72-1.69C334,240.5,333.32,213.48,335.25,193c19.78-3.75,33.89-10,41.94-18.51a26,26,0,0,0,4.81-6.89c1.56,10.44,6.4,16.75,10.5,20.33a26.84,26.84,0,0,0,10.43,5.81.85.85,0,0,0,.23,0,1,1,0,0,0,.56-.17,1,1,0,0,0,.43-.69c.19-1.37,4.33-33.11-11.55-51.09a13.25,13.25,0,0,0-7.41-24.22Z" transform="translate(-117.93 -117.61)"/><rect class="cls-3" x="153.08" y="221.11" width="191.22" height="112.93" rx="0.5"/><path class="cls-10" d="M461.73,339.23V451.16H271.51V339.23H461.73m0-1H271.51a1,1,0,0,0-1,1V451.16a1,1,0,0,0,1,1H461.73a1,1,0,0,0,1-1V339.23a1,1,0,0,0-1-1Z" transform="translate(-117.93 -117.61)"/><path class="cls-17" d="M208.86,451.42a.5.5,0,0,1-.49-.42c-2-11.52-7.19-41.62-7.49-42.62a.55.55,0,0,1,.08-.45.52.52,0,0,1,.4-.21h42.36a.51.51,0,0,1,.39.19.49.49,0,0,1,.1.41l-7.59,39.83a.32.32,0,0,1,0,.09l-.52,2.77a.5.5,0,0,1-.49.41Z" transform="translate(-117.93 -117.61)"/><path class="cls-10" d="M243.72,408.23l-7.59,39.83h0l-.54,2.86H208.86s-7.17-41.72-7.5-42.69h42.36m0-1H201.36a1,1,0,0,0-1,1.31c.3,1.1,4.63,26,7.46,42.54a1,1,0,0,0,1,.84h26.72a1,1,0,0,0,1-.82l.52-2.73,0-.13,7.59-39.83a1,1,0,0,0-.21-.82,1,1,0,0,0-.77-.36Zm0,2Z" transform="translate(-117.93 -117.61)"/><path class="cls-3" d="M222,427.34a13,13,0,0,1-.53-9.21c-4.4.2-7.92,4.5-7.92,9.81s3.69,9.82,8.23,9.82l.36,0A14.44,14.44,0,0,0,222,427.34Z" transform="translate(-117.93 -117.61)"/><path class="cls-3" d="M231.68,427.94c0-5.43-3.68-9.83-8.23-9.83l-.31,0a13,13,0,0,0,.54,9.21,14.54,14.54,0,0,1,.14,10.4C228.19,437.51,231.68,433.22,231.68,427.94Z" transform="translate(-117.93 -117.61)"/><path class="cls-17" d="M201.36,408.72a.5.5,0,0,1-.44-.26.47.47,0,0,1,0-.51l4.09-6.06,4.7-7a.49.49,0,0,1,.41-.23h25.76a.5.5,0,0,1,.43.25l4.17,7,3.64,6.06a.5.5,0,0,1,0,.5.47.47,0,0,1-.43.25Z" transform="translate(-117.93 -117.61)"/><path class="cls-10" d="M235.91,395.18l4.17,7,3.64,6.06H201.36l4.09-6.06,4.7-7h25.76m0-1H210.15a1,1,0,0,0-.83.45l-4.7,7-4.09,6.06a1,1,0,0,0-.05,1,1,1,0,0,0,.88.54h42.36a1,1,0,0,0,.86-1.52l-3.64-6.06-4.17-7a1,1,0,0,0-.86-.49Z" transform="translate(-117.93 -117.61)"/><path class="cls-2" d="M236.12,448.06l-.54,2.86H208.86s-7.17-41.72-7.5-42.69l4.09-6.06,4.7-7a101.39,101.39,0,0,0,.7,13.05C212.51,422.89,218,445.06,236.12,448.06Z" transform="translate(-117.93 -117.61)"/><path class="cls-4" d="M559.53,395.77s4.25-29.43,17.33-42.34" transform="translate(-117.93 -117.61)"/><path class="cls-3" d="M573.8,356.86c.21-.12.42-1.25.5-1.47.46-1.31,1-2.62,1.49-3.91a84.93,84.93,0,0,1,5.64-11.54c2.54-4.26,5.66-8.68,10-11.27a14.2,14.2,0,0,1,7.77-1.74c4.18.32,7.18,3.86,5.07,7.82-1.77,3.32-5.24,5.46-8.1,7.72a138.7,138.7,0,0,1-14.06,9.58C579.37,353.71,576.61,355.34,573.8,356.86Z" transform="translate(-117.93 -117.61)"/><path class="cls-4" d="M568.37,408.06s1.66-22.94,14.75-35.84" transform="translate(-117.93 -117.61)"/><path class="cls-3" d="M579.4,376.38c.31-.17.65-1.84.77-2.16.67-1.79,1.42-3.56,2.24-5.28,2-4.19,4.47-8.67,8.21-11.54,2.36-1.81,9.17-3.7,10.52.51a3.21,3.21,0,0,1-.24,2.19c-1.06,2.49-3.35,4.2-5.39,5.85A82.57,82.57,0,0,1,588.4,371C585.47,372.91,582.47,374.73,579.4,376.38Z" transform="translate(-117.93 -117.61)"/><path class="cls-4" d="M539.2,351.26s13.51,11.5,19.75,47.66" transform="translate(-117.93 -117.61)"/><path class="cls-3" d="M543.19,355.83c-.28-.17-.55-1.21-.69-1.5-.62-1.33-1.26-2.66-1.92-4-2-4-4.17-8-6.52-11.87a59.85,59.85,0,0,0-8.36-11.25c-2-2-5.08-4.66-8.14-3.59a6.66,6.66,0,0,0-3.91,5c-.39,3.2,2.76,6.48,4.82,8.63a72,72,0,0,0,7.13,6.38A169.88,169.88,0,0,0,540,353.82C541,354.5,542.11,355.18,543.19,355.83Z" transform="translate(-117.93 -117.61)"/><path class="cls-4" d="M553.34,396.55s-5.8-17,1.9-33.71" transform="translate(-117.93 -117.61)"/><path class="cls-3" d="M554.09,365.88a59.2,59.2,0,0,1,.23-9.51c.47-4.82,1.35-10.7,4.85-14.35a7.65,7.65,0,0,1,6.46-2.35c8.53,1-6.76,20.26-8.85,22.91C555.9,363.69,555,364.8,554.09,365.88Z" transform="translate(-117.93 -117.61)"/><path class="cls-4" d="M553.1,395.87s-11.38-20-28.74-26" transform="translate(-117.93 -117.61)"/><path class="cls-3" d="M533,374.06c-.35-.05-1.27-1.49-1.5-1.75q-1.92-2.15-4-4.13c-4.61-4.35-12.35-11.07-19.08-7.13a5.67,5.67,0,0,0-1.95,1.79c-2.45,3.85,3.48,5.84,6.11,6.78a67.75,67.75,0,0,0,8.64,2.38q5.84,1.29,11.77,2.05Z" transform="translate(-117.93 -117.61)"/><rect class="cls-9" x="419.21" y="270.26" width="43.63" height="61.04"/><path class="cls-10" d="M580.27,388.38v60H537.64v-60h42.63m1-1H536.64v62h44.63v-62Z" transform="translate(-117.93 -117.61)"/><path class="cls-18" d="M578.26,448.42H537.64v-60S543.38,443.64,578.26,448.42Z" transform="translate(-117.93 -117.61)"/><path class="cls-9" d="M172,424.63a2,2,0,0,1-.34,0,3.43,3.43,0,0,1-3-3.46v-36a.5.5,0,0,1,.5-.5h5.64a.5.5,0,0,1,.5.5v36.13a3.31,3.31,0,0,1-3.32,3.32Z" transform="translate(-117.93 -117.61)"/><path class="cls-10" d="M174.78,385.18v36.13a2.82,2.82,0,0,1-2.82,2.82h-.29a2.94,2.94,0,0,1-2.53-3v-36h5.64m0-1h-5.64a1,1,0,0,0-1,1v36a3.94,3.94,0,0,0,3.43,4l.39,0a3.82,3.82,0,0,0,3.82-3.82V385.18a1,1,0,0,0-1-1Z" transform="translate(-117.93 -117.61)"/><path class="cls-3" d="M172.91,382.42a1.18,1.18,0,0,0-1.89,0l-1.88,2.5v.26h5.64v-.26Z" transform="translate(-117.93 -117.61)"/><polygon class="cls-3" points="45.81 271.92 47.4 273.1 47.4 279.02 45.81 280.44 45.81 271.92"/><path class="cls-9" d="M160.92,416.94a3.32,3.32,0,0,1-3.32-3.32V384.17h6.64v29.45A3.32,3.32,0,0,1,160.92,416.94Z" transform="translate(-117.93 -117.61)"/><path class="cls-10" d="M163.74,384.67v28.95a2.82,2.82,0,0,1-5.64,0V384.67h5.64m1-1H157.1v29.95a3.82,3.82,0,0,0,7.64,0V383.67Z" transform="translate(-117.93 -117.61)"/><path class="cls-9" d="M157.6,385.17v-4.86a3.32,3.32,0,1,1,6.64,0v4.86Z" transform="translate(-117.93 -117.61)"/><path class="cls-10" d="M160.92,377.48a2.83,2.83,0,0,1,2.82,2.83v4.36H158.1v-4.36a2.83,2.83,0,0,1,2.82-2.83m0-1a3.83,3.83,0,0,0-3.82,3.83v5.36h7.64v-5.36a3.83,3.83,0,0,0-3.82-3.83Z" transform="translate(-117.93 -117.61)"/><path class="cls-9" d="M152.12,424.63a3.33,3.33,0,0,1-3.33-3.32V388a3.33,3.33,0,0,1,6.65,0v33.31A3.32,3.32,0,0,1,152.12,424.63Z" transform="translate(-117.93 -117.61)"/><path class="cls-10" d="M152.12,385.18a2.82,2.82,0,0,1,2.82,2.82v33.31a2.83,2.83,0,0,1-5.65,0V388a2.83,2.83,0,0,1,2.83-2.82m0-1a3.83,3.83,0,0,0-3.83,3.82v33.31a3.83,3.83,0,0,0,7.65,0V388a3.83,3.83,0,0,0-3.82-3.82Z" transform="translate(-117.93 -117.61)"/><polygon class="cls-3" points="62.03 280.45 60.44 281.64 60.44 287.56 62.03 288.98 62.03 280.45"/><path class="cls-9" d="M182.79,425.47a3.32,3.32,0,0,1-3.32-3.32V392.71h6.64v29.44A3.32,3.32,0,0,1,182.79,425.47Z" transform="translate(-117.93 -117.61)"/><path class="cls-10" d="M185.61,393.21v28.94a2.82,2.82,0,0,1-2.82,2.82h0a2.82,2.82,0,0,1-2.82-2.82V393.21h5.64m1-1H179v29.94a3.82,3.82,0,0,0,7.64,0V392.21Z" transform="translate(-117.93 -117.61)"/><path class="cls-3" d="M182.79,386h0a2.82,2.82,0,0,1,2.82,2.82v4.37H180v-4.37A2.82,2.82,0,0,1,182.79,386Z" transform="translate(-117.93 -117.61)"/><path class="cls-19" d="M187.64,401.7v38.72a10.75,10.75,0,0,1-10.74,10.74H156.08a10.74,10.74,0,0,1-10.75-10.74V401.7Z" transform="translate(-117.93 -117.61)"/><path class="cls-20" d="M184.62,447.88a10.7,10.7,0,0,1-7.72,3.28H156.08a10.74,10.74,0,0,1-10.75-10.74V401.7S158.05,438.26,184.62,447.88Z" transform="translate(-117.93 -117.61)"/><path class="cls-17" d="M143.94,471.82a12.14,12.14,0,0,1,0-24.27H606.06a12.14,12.14,0,0,1,0,24.27Z" transform="translate(-117.93 -117.61)"/><path class="cls-10" d="M606.06,448.05a11.64,11.64,0,0,1,0,23.27H143.94a11.64,11.64,0,0,1,0-23.27H606.06m0-1H143.94a12.64,12.64,0,0,0,0,25.27H606.06a12.64,12.64,0,0,0,0-25.27Z" transform="translate(-117.93 -117.61)"/></g></g></svg>