<svg xmlns="http://www.w3.org/2000/svg" viewBox="0 0 376.31 261.23"><defs><style>.cls-1{isolation:isolate;}.cls-2,.cls-3{fill:#7229b5;}.cls-2{opacity:0.27;}.cls-13,.cls-4,.cls-5,.cls-6{fill:none;}.cls-4,.cls-5{stroke:#7229b5;}.cls-4,.cls-7{stroke-miterlimit:10;}.cls-13,.cls-5,.cls-6{stroke-linecap:round;stroke-linejoin:round;}.cls-6{stroke:#fff;}.cls-12,.cls-7{fill:#faad3b;}.cls-13,.cls-7{stroke:#6a26a8;}.cls-14,.cls-15,.cls-8{mix-blend-mode:multiply;}.cls-8{opacity:0.75;}.cls-9{fill:#f5e073;}.cls-10{fill:#6a26a8;}.cls-11{fill:#e3c940;}.cls-15{opacity:0.49;}.cls-16{fill:#e8a137;}.cls-17{fill:#ededed;}.cls-18{fill:#edd349;}.cls-19{fill:#62239c;}.cls-20{fill:#5a208f;}</style></defs><g class="cls-1"><g id="OBJECTS"><path class="cls-2" d="M30.44,254.43c2.25,1.09,6.19,1.87,10.09,2.61h324a10.93,10.93,0,0,0,1.43-.65,14.25,14.25,0,0,0,5.61-6.09c6.15-10.86,9.48-22.57,7.33-34.05s-10.16-22.73-23.81-30.17c-7-3.8-15.23-6.55-21.77-10.66C313.26,162.81,313,139.94,290,129.68c-10.6-4.73-24.19-5.74-37-5.19-12,.51-24,2.31-34.43,6.24-10.84,4.11-19.35,10.31-28.36,16-18.06,11.37-40,21.25-65,23.14-15.9,1.2-32-.9-48-.27-17.45.69-34.54,4.73-48.59,11.48-9,4.32-16.9,9.9-20.8,16.71C2,207.83,5.61,219.12,11.19,229.24,15,236.21,21.06,249.9,30.44,254.43Z" transform="translate(-4.82 -8.57)"/><path class="cls-2" d="M356.53,225.77c-8.51,10.36-17.1,20.71-25.62,31.07a11.87,11.87,0,0,1-4.39,3.73c-2.6,1.15-6,1.13-9.13,1.07q-25.56-.47-51.09-.61l-117.75-.7L95.73,260c-11.52-.07-23,.22-34.48.24-5.84,0-12-.72-16.37-3.27-3.59-2.12-5.39-5.21-7-8.19a133.82,133.82,0,0,1-15-49.82c-1.34-14.53,3.65-29.21,21.6-39,6.68-3.65,14.61-6.29,20.89-10.23C84.64,137.65,84.91,115.7,107,105.84c10.18-4.54,23.23-5.51,35.56-5,11.52.5,23.08,2.22,33.05,6,10.41,3.94,18.57,9.89,27.23,15.34,17.34,10.91,38.4,20.4,62.4,22.21,15.27,1.16,30.72-.87,46.06-.26,16.75.66,33.16,4.54,46.64,11,8.63,4.15,16.22,9.51,20,16,8.19,14.27-.74,29.24-11.07,41.94Q361.72,219.47,356.53,225.77Z" transform="translate(-4.82 -8.57)"/><path class="cls-3" d="M292.84,211.47s12.84,7.24,12.63,2.52c-.19-4.22-10.18-2.9-12.26-2.58Z" transform="translate(-4.82 -8.57)"/><path class="cls-3" d="M293,211.31s7.25-12.84,2.53-12.63S293,211.31,293,211.31Z" transform="translate(-4.82 -8.57)"/><path class="cls-3" d="M284.81,217.12s12.85,7.24,12.64,2.52S284.81,217.12,284.81,217.12Z" transform="translate(-4.82 -8.57)"/><path class="cls-3" d="M284.77,217.14s7.25-12.85,2.53-12.64S284.77,217.14,284.77,217.14Z" transform="translate(-4.82 -8.57)"/><path class="cls-3" d="M278.38,222.75s11.27,6.36,11.09,2.22S278.38,222.75,278.38,222.75Z" transform="translate(-4.82 -8.57)"/><path class="cls-3" d="M278.42,222.85s6.36-11.27,2.22-11.08S278.42,222.85,278.42,222.85Z" transform="translate(-4.82 -8.57)"/><path class="cls-3" d="M272.7,228.89s11.24,4.55,10.56.72S272.7,228.89,272.7,228.89Z" transform="translate(-4.82 -8.57)"/><path class="cls-3" d="M272.87,229.05s4.55-11.24.72-10.57S272.87,229.05,272.87,229.05Z" transform="translate(-4.82 -8.57)"/><path class="cls-3" d="M267.81,235.55s12,1.49,10.4-2S267.81,235.55,267.81,235.55Z" transform="translate(-4.82 -8.57)"/><path class="cls-3" d="M268,235.54s1.49-12-2-10.4S268,235.54,268,235.54Z" transform="translate(-4.82 -8.57)"/><path class="cls-3" d="M264,242s10.43,1.28,9-1.77S264,242,264,242Z" transform="translate(-4.82 -8.57)"/><path class="cls-3" d="M264.24,242.05s1.29-10.43-1.76-9S264.24,242.05,264.24,242.05Z" transform="translate(-4.82 -8.57)"/><path class="cls-3" d="M261.42,247.18s8.91,1.1,7.69-1.51S261.42,247.18,261.42,247.18Z" transform="translate(-4.82 -8.57)"/><path class="cls-3" d="M261.69,247.27s1.1-8.91-1.51-7.7S261.69,247.27,261.69,247.27Z" transform="translate(-4.82 -8.57)"/><path class="cls-3" d="M292.27,211.86s14.13-5.78,12.64-8.4S292.27,211.86,292.27,211.86Z" transform="translate(-4.82 -8.57)"/><path class="cls-4" d="M295.06,210.07S264,226.27,257.5,261.13" transform="translate(-4.82 -8.57)"/><path class="cls-3" d="M68.12,174.29s-25.49.27-21.24-6.7c3.81-6.25,17.84,4.07,20.72,6.29Z" transform="translate(-4.82 -8.57)"/><path class="cls-3" d="M68.06,174s-.28-25.5,6.7-21.24S68.06,174,68.06,174Z" transform="translate(-4.82 -8.57)"/><path class="cls-3" d="M75.58,189.53s-25.5.27-21.25-6.7S75.58,189.53,75.58,189.53Z" transform="translate(-4.82 -8.57)"/><path class="cls-3" d="M75.62,189.59s-.27-25.49,6.7-21.24S75.62,189.59,75.62,189.59Z" transform="translate(-4.82 -8.57)"/><path class="cls-3" d="M80.62,203.42s-22.37.24-18.63-5.88S80.62,203.42,80.62,203.42Z" transform="translate(-4.82 -8.57)"/><path class="cls-3" d="M80.47,203.54s-.24-22.37,5.88-18.63S80.47,203.54,80.47,203.54Z" transform="translate(-4.82 -8.57)"/><path class="cls-3" d="M84.12,217.46S63.3,215,67.51,209.75,84.12,217.46,84.12,217.46Z" transform="translate(-4.82 -8.57)"/><path class="cls-3" d="M83.72,217.55s2.47-20.81,7.71-16.61S83.72,217.55,83.72,217.55Z" transform="translate(-4.82 -8.57)"/><path class="cls-3" d="M68.66,175.36S52.07,154.83,56.51,152.1,68.66,175.36,68.66,175.36Z" transform="translate(-4.82 -8.57)"/><path class="cls-5" d="M65.92,170.31s20.55,30.86,20.31,72.15" transform="translate(-4.82 -8.57)"/><path class="cls-3" d="M282.91,96s14.79,20.76,17.92,13.22c2.8-6.76-13.8-12-17.29-13Z" transform="translate(-4.82 -8.57)"/><path class="cls-3" d="M283.22,95.84S304,81,296.44,77.91,283.22,95.84,283.22,95.84Z" transform="translate(-4.82 -8.57)"/><path class="cls-3" d="M266.2,98.94s14.8,20.76,17.93,13.22S266.2,98.94,266.2,98.94Z" transform="translate(-4.82 -8.57)"/><path class="cls-3" d="M266.13,98.94S286.89,84.15,279.34,81,266.13,98.94,266.13,98.94Z" transform="translate(-4.82 -8.57)"/><path class="cls-3" d="M252,103.05s13,18.21,15.73,11.59S252,103.05,252,103.05Z" transform="translate(-4.82 -8.57)"/><path class="cls-3" d="M252,103.24s18.22-13,11.6-15.73S252,103.24,252,103.24Z" transform="translate(-4.82 -8.57)"/><path class="cls-3" d="M238.6,108.49s14.26,15.36,16,8.88S238.6,108.49,238.6,108.49Z" transform="translate(-4.82 -8.57)"/><path class="cls-3" d="M238.76,108.87s15.36-14.26,8.88-16S238.76,108.87,238.76,108.87Z" transform="translate(-4.82 -8.57)"/><path class="cls-3" d="M226.07,115.33s17.75,11.15,17.76,4.44S226.07,115.33,226.07,115.33Z" transform="translate(-4.82 -8.57)"/><path class="cls-3" d="M226.32,115.42s11.15-17.75,4.43-17.76S226.32,115.42,226.32,115.42Z" transform="translate(-4.82 -8.57)"/><path class="cls-3" d="M215.34,122.61s15.39,9.67,15.4,3.85S215.34,122.61,215.34,122.61Z" transform="translate(-4.82 -8.57)"/><path class="cls-3" d="M215.71,122.89s9.67-15.39,3.85-15.4S215.71,122.89,215.71,122.89Z" transform="translate(-4.82 -8.57)"/><path class="cls-3" d="M207.53,128.85s13.14,8.26,13.15,3.28S207.53,128.85,207.53,128.85Z" transform="translate(-4.82 -8.57)"/><path class="cls-3" d="M207.89,129.18S216.15,116,211.18,116,207.89,129.18,207.89,129.18Z" transform="translate(-4.82 -8.57)"/><path class="cls-3" d="M281.73,96.18s26.36,1.32,25.95-3.88S281.73,96.18,281.73,96.18Z" transform="translate(-4.82 -8.57)"/><path class="cls-4" d="M287.42,95.43S226.86,98,191.15,147.82" transform="translate(-4.82 -8.57)"/><path class="cls-3" d="M150.63,154.8c.92-.4-6.71-22.81-7.2-24-7.4-17.7-18.43-32.1-31.8-41.43C86.94,72.15,58.11,73.91,30.41,80.53c3.43.09,6.54,2.25,9.35,4.69,18.38,15.94,28.13,45,47.07,59.84C105.2,159.42,129.2,164,150.63,154.8Z" transform="translate(-4.82 -8.57)"/><path class="cls-6" d="M139.65,149.94s-34-58.6-95.12-66.64" transform="translate(-4.82 -8.57)"/><polyline class="cls-6" points="79.54 72.99 85.74 91.55 55.01 92.86"/><polyline class="cls-6" points="103.06 88.42 109.11 109.87 83.27 111.22"/><polyline class="cls-6" points="124 108.16 127.31 130.29 101.15 127.89"/><polygon class="cls-7" points="153.51 140.61 149.3 151.3 121.5 221.93 118.61 211.46 115.53 179.22 127.41 144.09 153.51 140.61"/><g class="cls-8"><polygon class="cls-9" points="149.3 151.3 121.5 221.93 118.61 211.46 146.37 150.68 149.3 151.3"/></g><polygon class="cls-7" points="248.46 191.75 244.79 210.23 242.47 221.93 214.66 151.3 210.44 140.61 236.54 144.09 248.46 191.75"/><g class="cls-8"><polygon class="cls-9" points="244.79 210.23 242.47 221.93 214.66 151.3 217.6 150.68 244.79 210.23"/></g><path class="cls-9" d="M155.76,200.81a.5.5,0,0,1-.5-.5q0-.88,0-1.77l0-.94,0-.46c0-.31,0-.61,0-.91V196c0-.61-.07-1.22-.1-1.83-.08-1.22-.18-2.44-.29-3.65v-.2a2.6,2.6,0,0,1,0-.4l0-.81,0-.46c0-.3,0-.61,0-.91l-.11-2.05c-.08-1.23-.18-2.45-.29-3.66l-.08-1.06L154,179.8c0-.42-.08-.77-.12-1.1l0-.53c-.05-.41-.09-.82-.14-1.22l-.06-.43-.14-1.09c0-.36-.08-.7-.13-1.05,0,0-.12-.8-.15-1.06l-.21-1.41c0-.21-.06-.43-.1-.64s-.1-.68-.16-1c-.15-1-.31-2-.48-2.92,0-.27-.08-.52-.13-.78-.1-.58-.21-1.13-.31-1.68l-.09-.48-.24-1.22c-.17-.86-.33-1.67-.49-2.44-9.69-1-20.38-5.84-20.49-5.89a.5.5,0,0,1-.25-.65l13.26-30.27c3-4.83,14.89-8.53,24.31-10.79,4.56-1.08,8.23-1.76,9.3-2a.41.41,0,0,1,.19,0L187,112l10-.88a.65.65,0,0,1,.2,0c2.07.36,28.89,5.22,33.57,12.68l13.28,30.33a.49.49,0,0,1-.25.65c-.11,0-11.16,5.1-21,5.94-4.16,16.07-3.92,38.32-3.92,38.54a.49.49,0,0,1-.49.51l-9.23.14-13.91.22-16.22.25-1.92,0Z" transform="translate(-4.82 -8.57)"/><path class="cls-10" d="M197,111.66v0c.1,0,28.61,4.91,33.34,12.46l13.25,30.27s-11.23,5.17-21.16,5.92c-4.32,16.35-4,39-4,39l-9.23.14-13.91.22-16.21.25-1.92,0-8.47.14-12.93.19c0-.59,0-1.19,0-1.79q0-.48,0-.93c0-.47,0-.94-.06-1.39,0-.69-.08-1.37-.11-2-.08-1.24-.18-2.46-.29-3.68,0-.19,0-.37,0-.56s0-.55,0-.81c0-.47,0-.93-.06-1.39l-.11-2.05c-.08-1.24-.18-2.46-.29-3.68l-.09-1-.12-1.19-.12-1.1c-.07-.6-.12-1.18-.2-1.76,0-.14,0-.28-.06-.43,0-.37-.08-.72-.13-1.08s-.09-.71-.14-1.06l-.15-1.06-.15-1-.15-1c-.06-.35-.11-.68-.17-1-.15-1-.31-2-.47-2.91,0-.27-.09-.53-.14-.79-.13-.74-.27-1.46-.4-2.17l-.24-1.22c-.19-1-.39-1.92-.57-2.8-9.81-.87-20.69-5.88-20.69-5.88L144,124.14c3-4.7,15.19-8.39,24-10.5,5.28-1.26,9.32-2,9.35-2v0l.22,0,9.47.86,10-.88m-19.71-1a.92.92,0,0,0-.33.06c-1,.17-4.69.86-9.26,2-9.52,2.28-21.51,6-24.59,10.94a.54.54,0,0,0-.07.13L129.81,154a1,1,0,0,0,.49,1.31c.44.2,10.62,4.85,20.28,5.89q.21,1,.42,2.07l.24,1.22.08.44c.11.56.21,1.13.31,1.7.05.28.1.53.14.79.16.95.32,1.92.48,2.9.06.35.11.67.16,1s.07.45.1.67l.05.36.08.52.08.52c0,.28.07.59.12.9l0,.15c0,.34.1.69.14,1l0,.36.09.72,0,.22,0,.24c.05.39.1.8.14,1.22l.06.5c0,.34.07.67.1,1v.08c0,.21.05.4.07.6l.06.6,0,.51,0,.52c.12,1.22.21,2.45.29,3.65l.11,2c0,.32,0,.63,0,.93l0,.45v.79a3,3,0,0,0,0,.44v.18c.1,1.09.2,2.29.3,3.67,0,.66.06,1.34.1,2,0,.31,0,.62,0,.93l0,.45,0,.91q0,.9,0,1.77a1,1,0,0,0,1,1h0l12.93-.19,8.46-.14,1.92,0,16.21-.25,13.92-.22,9.23-.14a1,1,0,0,0,1-1c0-.22-.24-22.1,3.81-38.07,9.8-.93,20.34-5.75,20.79-6a1,1,0,0,0,.5-1.31l-13.25-30.27a.54.54,0,0,0-.07-.13c-4.83-7.71-31.55-12.5-33.88-12.9a1.06,1.06,0,0,0-.31,0h-.08l-9.94.87-9.38-.85-.21,0Z" transform="translate(-4.82 -8.57)"/><path class="cls-11" d="M195.29,199.71l-16.21.25-1.92,0-21.4.33c0-.59,0-1.19,0-1.79q0-.48,0-.93c0-.47,0-.94-.06-1.39,0-.69-.08-1.37-.11-2-.08-1.24-.18-2.46-.29-3.68,0-.19,0-.37,0-.56s0-.55,0-.81c0-.47,0-.93-.06-1.39l-.11-2.05c-.08-1.24-.18-2.46-.29-3.68l-.09-1-.12-1.19-.12-1.1c-.07-.6-.12-1.18-.2-1.76,0-.14,0-.28-.06-.43,0-.37-.08-.72-.13-1.08s-.09-.71-.14-1.06l-.15-1.06-.15-1-.15-1c-.06-.35-.11-.68-.17-1-.15-1-.31-2-.47-2.91,0-.27-.09-.53-.14-.79-.13-.74-.27-1.46-.4-2.17l-.24-1.22c-.19-1-.39-1.92-.57-2.8C151.41,160.29,172.2,187,195.29,199.71Z" transform="translate(-4.82 -8.57)"/><path class="cls-12" d="M197,91.38v22.26s-2.33,1.75-7.6,2.06c-.51,0-1.06,0-1.63,0a26.81,26.81,0,0,1-8.1-1.13,12.23,12.23,0,0,1-2.38-1V93.75Z" transform="translate(-4.82 -8.57)"/><g class="cls-8"><path class="cls-9" d="M189.42,115.7c-.51,0-1.06,0-1.63,0a26.81,26.81,0,0,1-8.1-1.13,12.23,12.23,0,0,1-2.38-1V95.34l7.91,3.8S183.45,110,189.42,115.7Z" transform="translate(-4.82 -8.57)"/></g><polyline class="cls-13" points="172.49 105.07 172.49 85.17 192.21 82.81 192.21 105.07"/><path class="cls-7" d="M163.42,70.1c.25,3.47-1.15,6.39-3.11,6.53s-3.77-2.55-4-6,1.15-6.39,3.11-6.53S163.17,66.64,163.42,70.1Z" transform="translate(-4.82 -8.57)"/><g class="cls-14"><g class="cls-8"><path class="cls-9" d="M157.62,69a1.61,1.61,0,0,1,2-.16,3.33,3.33,0,0,1,1.22,2,.43.43,0,0,1-.82.23,3.35,3.35,0,0,0-.6-1.33.82.82,0,0,0-1.15-.18c-.4.39-1-.22-.61-.6Z" transform="translate(-4.82 -8.57)"/></g></g><path class="cls-7" d="M210.44,70.1c-.25,3.47,1.14,6.39,3.11,6.53s3.76-2.55,4-6-1.14-6.39-3.11-6.53S210.69,66.64,210.44,70.1Z" transform="translate(-4.82 -8.57)"/><g class="cls-14"><g class="cls-8"><path class="cls-9" d="M216.23,69a1.59,1.59,0,0,0-1.95-.16,3.34,3.34,0,0,0-1.23,2,.43.43,0,0,0,.83.23,3.33,3.33,0,0,1,.59-1.33.84.84,0,0,1,1.16-.18c.39.39,1-.22.6-.6Z" transform="translate(-4.82 -8.57)"/></g></g><path class="cls-12" d="M187.76,101.24a24.55,24.55,0,0,1-6.29-.81,24.18,24.18,0,0,1-4.37-1.6c-.46-.22-.92-.45-1.37-.71a24,24,0,0,1-2.17-1.36c-6.15-4.31-10.47-11.44-12.47-20.62a61.23,61.23,0,0,1-1.24-13.26c0-1.13,0-2.26,0-3.32V59.4c.63-11.28,5.93-21.17,14.2-26.46.55-.37,1.13-.7,1.7-1a22.53,22.53,0,0,1,10.41-2.84h.69a23.8,23.8,0,0,1,13.1,4c7.39,4.85,12.66,13.68,14.1,23.62l0,.37a38.2,38.2,0,0,1,.35,4.18c0,1,0,2,0,2.9l-.05,1.37a66.1,66.1,0,0,1-.95,9.19c-2,11-7.05,19.29-14.22,23.44a15.49,15.49,0,0,1-1.89,1l-.15.06a23,23,0,0,1-8.69,2Z" transform="translate(-4.82 -8.57)"/><path class="cls-10" d="M186.9,29.58a23.16,23.16,0,0,1,12.83,4c7.15,4.69,12.41,13.18,13.87,23.27l0,.36a37.08,37.08,0,0,1,.35,4.13q0,1.47,0,2.88c0,.46,0,.92-.05,1.36a63.51,63.51,0,0,1-.95,9.13c-2.05,11.27-7.15,19.13-14,23.09a15.71,15.71,0,0,1-1.85,1l-.15.07a22.28,22.28,0,0,1-8.5,1.92h-.77a24.19,24.19,0,0,1-10.44-2.36c-.45-.21-.89-.44-1.34-.69a24.18,24.18,0,0,1-2.12-1.34c-5.69-4-10.18-10.74-12.27-20.32a60.16,60.16,0,0,1-1.23-13.14c0-1.11,0-2.22,0-3.31v0c.61-11.34,6.07-21.11,14-26.18.55-.36,1.11-.69,1.67-1a22.13,22.13,0,0,1,10.19-2.78h.68m0-1h-.71a23,23,0,0,0-10.64,2.91c-.57.3-1.15.65-1.73,1-8.35,5.36-13.73,15.32-14.41,26.7l0,0v.34c0,1-.06,2.17,0,3.33a62.05,62.05,0,0,0,1.25,13.33c2,9.31,6.42,16.55,12.68,20.93a23.63,23.63,0,0,0,2.21,1.39c.42.24.88.48,1.39.72a23.7,23.7,0,0,0,4.46,1.63,25.11,25.11,0,0,0,6.41.83h.8a23.47,23.47,0,0,0,8.88-2l.09,0,0,0a15.29,15.29,0,0,0,2-1.07C206.81,94.39,212,85.94,214,74.83a65.59,65.59,0,0,0,1-9.26l.05-1.36c0-1,0-1.95,0-2.93a37.63,37.63,0,0,0-.36-4.27l0-.31c-1.47-10.12-6.82-19.08-14.32-24a24.35,24.35,0,0,0-13.38-4.11Z" transform="translate(-4.82 -8.57)"/><path class="cls-13" d="M186.27,67.05s1.82,6.19.32,9.7a1.06,1.06,0,0,0,.86,1.5A6.61,6.61,0,0,0,192,76.93" transform="translate(-4.82 -8.57)"/><path class="cls-13" d="M185.91,83.94A9.3,9.3,0,0,0,196,81.56" transform="translate(-4.82 -8.57)"/><path class="cls-13" d="M195.06,58.76s4.85-1.42,7.18.69" transform="translate(-4.82 -8.57)"/><path class="cls-13" d="M173.64,58.76s4.85-1.42,7.19.69" transform="translate(-4.82 -8.57)"/><g class="cls-8"><path class="cls-9" d="M188.52,100.73a24.23,24.23,0,0,1-11.21-2.35c-.45-.21-.89-.44-1.34-.69a24.18,24.18,0,0,1-2.12-1.34c-5.69-4-10.18-10.74-12.27-20.32a60.16,60.16,0,0,1-1.23-13.14c0-1.11,0-2.22,0-3.31v0c.61-11.34,6.07-21.11,14-26.18l2,8.24s-9.75,38.16,1,53.18A13.74,13.74,0,0,0,188.52,100.73Z" transform="translate(-4.82 -8.57)"/></g><g class="cls-15"><path class="cls-16" d="M205.82,76.5a4.7,4.7,0,1,1-3.5-5.66A4.71,4.71,0,0,1,205.82,76.5Z" transform="translate(-4.82 -8.57)"/><path class="cls-16" d="M177.63,77.23a4.7,4.7,0,1,1-3.49-5.65A4.7,4.7,0,0,1,177.63,77.23Z" transform="translate(-4.82 -8.57)"/></g><path class="cls-3" d="M199.28,65c0,1.86-1,3.43-2.26,3.51s-2.26-1.36-2.26-3.22,1-3.43,2.26-3.51S199.28,63.17,199.28,65Z" transform="translate(-4.82 -8.57)"/><path class="cls-3" d="M180.31,64.91c.1,1.86-.83,3.48-2.07,3.63s-2.33-1.24-2.43-3.09.83-3.48,2.07-3.63S180.21,63.06,180.31,64.91Z" transform="translate(-4.82 -8.57)"/><path class="cls-3" d="M173.06,110.56h-.12c-.34-.08-8.29-2.1-14.08-11.76-7.12-11.87-7.75-29.46-1.85-52.27.42-1.62.87-3.21,1.35-4.74.09-.37.2-.77.32-1.17a41,41,0,0,1,5.39-11.67,20.18,20.18,0,0,1,7.75-7.44A25.06,25.06,0,0,1,185,18.07a38.83,38.83,0,0,1,6.77.64v-.14a9.5,9.5,0,1,1,14.58,8c11.81,13.11,8.65,37.32,8.61,37.56a.47.47,0,0,1-.21.35.54.54,0,0,1-.28.08h-.12c-.14,0-13.26-3.35-15.3-19.79-2,5-9.08,14.46-34.71,19.27-1.45,15.12-1,35.17,9.1,45.67a.5.5,0,0,1-.36.84Z" transform="translate(-4.82 -8.57)"/><path class="cls-10" d="M201.24,9.57a9,9,0,0,1,4.3,16.9c12.29,13,8.91,37.61,8.91,37.61s-14.55-3.46-15.17-22.51c0,0-.06,15.52-35.42,22.06-1.45,14.8-1.28,35.54,9.2,46.43,0,0-30.08-7.27-15.56-63.42q.65-2.49,1.34-4.71c.1-.39.2-.79.32-1.18a40.65,40.65,0,0,1,5.32-11.53A19.58,19.58,0,0,1,172,22,24.52,24.52,0,0,1,185,18.57a38.08,38.08,0,0,1,7.09.71l.21,0c0-.25,0-.5,0-.76a9,9,0,0,1,9-9m0-1a10,10,0,0,0-10,9.55,37.67,37.67,0,0,0-6.28-.55,25.65,25.65,0,0,0-13.42,3.5,20.72,20.72,0,0,0-7.92,7.61,41.74,41.74,0,0,0-5.44,11.79c-.12.39-.22.79-.32,1.19-.48,1.54-.94,3.13-1.35,4.73-5.93,23-5.3,40.67,1.9,52.65,5.9,9.85,14,11.91,14.39,12l.24,0a1,1,0,0,0,.86-.5,1,1,0,0,0-.14-1.19c-9.89-10.28-10.39-29.93-9-44.9,23.12-4.41,31.18-12.69,34-18,2.72,15.36,15.3,18.54,15.44,18.58l.23,0a1,1,0,0,0,.56-.17,1,1,0,0,0,.43-.69c.14-1,3.16-24.19-8.36-37.54a10,10,0,0,0-5.84-18.11Z" transform="translate(-4.82 -8.57)"/><rect class="cls-3" x="112.37" y="162.64" width="140.81" height="83.27" rx="0.5"/><path class="cls-10" d="M257.5,171.72V254H117.69V171.72H257.5m0-1H117.69a1,1,0,0,0-1,1V254a1,1,0,0,0,1,1H257.5a1,1,0,0,0,1-1V171.72a1,1,0,0,0-1-1Z" transform="translate(-4.82 -8.57)"/><path class="cls-17" d="M71.64,254.3a.49.49,0,0,1-.49-.41c-1.45-8.43-5.26-30.5-5.49-31.31a.52.52,0,0,1,.07-.45.54.54,0,0,1,.4-.2H97.27a.48.48,0,0,1,.38.18.51.51,0,0,1,.11.41L92.18,251.8l0,.08-.39,2a.49.49,0,0,1-.49.4Z" transform="translate(-4.82 -8.57)"/><path class="cls-10" d="M97.27,222.43,91.69,251.7h0l-.4,2.1H71.64s-5.27-30.65-5.51-31.37H97.27m0-1H66.13a1,1,0,0,0-.81.42,1,1,0,0,0-.14.9c.23.87,3.4,19.16,5.48,31.22a1,1,0,0,0,1,.83H91.28a1,1,0,0,0,1-.81l.37-2,0-.11,5.58-29.27a1,1,0,0,0-.21-.83,1,1,0,0,0-.77-.36Zm0,2Z" transform="translate(-4.82 -8.57)"/><path class="cls-3" d="M81.33,236.48a9.53,9.53,0,0,1-.39-6.77c-3.23.14-5.82,3.31-5.82,7.21s2.71,7.22,6,7.22l.27,0A10.64,10.64,0,0,0,81.33,236.48Z" transform="translate(-4.82 -8.57)"/><path class="cls-3" d="M88.42,236.92c0-4-2.71-7.23-6-7.23l-.23,0a9.53,9.53,0,0,0,.39,6.77,10.64,10.64,0,0,1,.11,7.64C85.85,244,88.42,240.8,88.42,236.92Z" transform="translate(-4.82 -8.57)"/><path class="cls-17" d="M66.13,222.93a.5.5,0,0,1-.44-.27.47.47,0,0,1,0-.51l3-4.45,3.46-5.13a.5.5,0,0,1,.41-.23H91.53a.53.53,0,0,1,.43.25L95,217.72l2.67,4.45a.47.47,0,0,1,0,.5.49.49,0,0,1-.43.26Z" transform="translate(-4.82 -8.57)"/><path class="cls-10" d="M91.53,212.84,94.59,218l2.68,4.45H66.13l3-4.45,3.45-5.14H91.53m0-1H72.59a1,1,0,0,0-.83.45l-3.45,5.13-3,4.45a1,1,0,0,0,0,1,1,1,0,0,0,.88.53H97.27a1,1,0,0,0,.87-.51,1,1,0,0,0,0-1l-2.67-4.45-3.07-5.13a1,1,0,0,0-.85-.49Z" transform="translate(-4.82 -8.57)"/><path class="cls-2" d="M91.68,251.7l-.4,2.1H71.64s-5.27-30.65-5.51-31.37l3-4.45,3.45-5.14a75.68,75.68,0,0,0,.52,9.59C74.33,233.2,78.39,249.5,91.68,251.7Z" transform="translate(-4.82 -8.57)"/><path class="cls-4" d="M329.38,213.28s3.12-21.64,12.73-31.12" transform="translate(-4.82 -8.57)"/><path class="cls-3" d="M339.86,184.68c.16-.09.32-.92.37-1.08.34-1,.71-1.93,1.1-2.88a60.49,60.49,0,0,1,4.15-8.48c1.86-3.13,4.15-6.38,7.34-8.28a10.4,10.4,0,0,1,5.71-1.28c3.07.23,5.27,2.83,3.72,5.75-1.3,2.44-3.85,4-5.95,5.67a101.63,101.63,0,0,1-10.33,7C344,182.36,341.93,183.56,339.86,184.68Z" transform="translate(-4.82 -8.57)"/><path class="cls-4" d="M335.88,222.31s1.22-16.86,10.83-26.35" transform="translate(-4.82 -8.57)"/><path class="cls-3" d="M344,199c.23-.13.48-1.36.57-1.59.49-1.32,1-2.62,1.65-3.89,1.46-3.07,3.28-6.37,6-8.48,1.74-1.33,6.74-2.71,7.73.38a2.32,2.32,0,0,1-.18,1.61c-.77,1.83-2.46,3.09-4,4.3a59.54,59.54,0,0,1-5.22,3.72C348.44,196.48,346.24,197.81,344,199Z" transform="translate(-4.82 -8.57)"/><path class="cls-4" d="M314.44,180.56s9.93,8.46,14.51,35" transform="translate(-4.82 -8.57)"/><path class="cls-3" d="M317.37,183.92c-.21-.13-.41-.89-.51-1.1-.46-1-.93-2-1.41-2.93-1.48-3-3.06-5.89-4.79-8.72a44.08,44.08,0,0,0-6.15-8.27c-1.46-1.46-3.73-3.42-6-2.64a4.9,4.9,0,0,0-2.88,3.65c-.28,2.36,2,4.77,3.55,6.35a52.89,52.89,0,0,0,5.24,4.68,122.34,122.34,0,0,0,10.57,7.5C315.79,182.94,316.57,183.44,317.37,183.92Z" transform="translate(-4.82 -8.57)"/><path class="cls-4" d="M324.83,213.85s-4.27-12.51,1.4-24.78" transform="translate(-4.82 -8.57)"/><path class="cls-3" d="M325.38,191.3a42.82,42.82,0,0,1,.17-7c.34-3.54,1-7.87,3.56-10.55a5.63,5.63,0,0,1,4.75-1.73c6.27.73-5,14.89-6.5,16.84C326.71,189.7,326.05,190.51,325.38,191.3Z" transform="translate(-4.82 -8.57)"/><path class="cls-4" d="M324.65,213.35s-8.36-14.7-21.12-19.12" transform="translate(-4.82 -8.57)"/><path class="cls-3" d="M309.91,197.32c-.26,0-.94-1.1-1.11-1.28q-1.41-1.59-2.95-3c-3.39-3.2-9.08-8.14-14-5.24a4.21,4.21,0,0,0-1.44,1.31c-1.8,2.83,2.56,4.29,4.5,5a51.27,51.27,0,0,0,6.34,1.75c2.86.62,5.76,1.13,8.66,1.5Z" transform="translate(-4.82 -8.57)"/><rect class="cls-9" x="307.97" y="198.77" width="32.33" height="45.13"/><path class="cls-10" d="M344.62,207.84V252H313.29V207.84h31.33m1-1H312.29V253h33.33V206.84Z" transform="translate(-4.82 -8.57)"/><path class="cls-18" d="M343.14,252H313.29V207.84S317.51,248.46,343.14,252Z" transform="translate(-4.82 -8.57)"/><path class="cls-9" d="M44.53,234.62h-.27A2.67,2.67,0,0,1,42,231.93V205.49a.5.5,0,0,1,.5-.5H46.6a.5.5,0,0,1,.5.5v26.56a2.56,2.56,0,0,1-2.57,2.57Z" transform="translate(-4.82 -8.57)"/><path class="cls-10" d="M46.6,205.49v26.56a2.07,2.07,0,0,1-2.07,2.07h-.22a2.16,2.16,0,0,1-1.86-2.18V205.49H46.6m0-1H42.45a1,1,0,0,0-1,1v26.44a3.16,3.16,0,0,0,2.76,3.17l.32,0a3.08,3.08,0,0,0,3.07-3.07V205.49a1,1,0,0,0-1-1Z" transform="translate(-4.82 -8.57)"/><path class="cls-3" d="M45.22,203.46a.87.87,0,0,0-1.39,0l-1.38,1.84v.19H46.6v-.19Z" transform="translate(-4.82 -8.57)"/><polygon class="cls-3" points="33.67 200.12 34.84 200.99 34.84 205.34 33.67 206.38 33.67 200.12"/><path class="cls-9" d="M36.41,229a2.57,2.57,0,0,1-2.57-2.57V204.62H39v21.77A2.57,2.57,0,0,1,36.41,229Z" transform="translate(-4.82 -8.57)"/><path class="cls-10" d="M38.48,205.12v21.27a2.07,2.07,0,0,1-4.14,0V205.12h4.14m1-1H33.34v22.27a3.07,3.07,0,0,0,6.14,0V204.12Z" transform="translate(-4.82 -8.57)"/><path class="cls-9" d="M33.84,205.62v-3.71a2.57,2.57,0,1,1,5.14,0v3.71Z" transform="translate(-4.82 -8.57)"/><path class="cls-10" d="M36.41,199.83a2.07,2.07,0,0,1,2.07,2.08v3.21H34.34v-3.21a2.08,2.08,0,0,1,2.07-2.08m0-1a3.08,3.08,0,0,0-3.07,3.08v4.21h6.14v-4.21a3.07,3.07,0,0,0-3.07-3.08Z" transform="translate(-4.82 -8.57)"/><path class="cls-9" d="M29.94,234.62a2.58,2.58,0,0,1-2.57-2.57V207.56a2.57,2.57,0,0,1,5.14,0v24.49A2.58,2.58,0,0,1,29.94,234.62Z" transform="translate(-4.82 -8.57)"/><path class="cls-10" d="M29.94,205.49A2.07,2.07,0,0,1,32,207.56v24.49a2.07,2.07,0,1,1-4.14,0V207.56a2.07,2.07,0,0,1,2.07-2.07m0-1a3.07,3.07,0,0,0-3.07,3.07v24.49a3.07,3.07,0,0,0,6.14,0V207.56a3.08,3.08,0,0,0-3.07-3.07Z" transform="translate(-4.82 -8.57)"/><polygon class="cls-3" points="45.59 206.39 44.42 207.26 44.42 211.61 45.59 212.66 45.59 206.39"/><path class="cls-9" d="M52.48,235.24a2.58,2.58,0,0,1-2.57-2.58V210.89h5.15v21.77A2.59,2.59,0,0,1,52.48,235.24Z" transform="translate(-4.82 -8.57)"/><path class="cls-10" d="M54.56,211.39v21.27a2.08,2.08,0,0,1-2.08,2.08h0a2.08,2.08,0,0,1-2.07-2.08V211.39h4.15m1-1H49.41v22.27a3.08,3.08,0,1,0,6.15,0V210.39Z" transform="translate(-4.82 -8.57)"/><path class="cls-3" d="M52.48,206.11h0a2.08,2.08,0,0,1,2.08,2.07v3.21H50.41v-3.21A2.07,2.07,0,0,1,52.48,206.11Z" transform="translate(-4.82 -8.57)"/><path class="cls-19" d="M56.05,217.64v28.45a7.9,7.9,0,0,1-7.9,7.89H32.85a7.9,7.9,0,0,1-7.9-7.89V217.64Z" transform="translate(-4.82 -8.57)"/><path class="cls-20" d="M53.83,251.57A7.85,7.85,0,0,1,48.15,254H32.85a7.9,7.9,0,0,1-7.9-7.89V217.64S34.3,244.51,53.83,251.57Z" transform="translate(-4.82 -8.57)"/><path class="cls-17" d="M23.93,269.3a9.05,9.05,0,1,1,0-18.1H363.58a9.05,9.05,0,0,1,0,18.1Z" transform="translate(-4.82 -8.57)"/><path class="cls-10" d="M363.58,251.7a8.55,8.55,0,0,1,0,17.1H23.93a8.55,8.55,0,1,1,0-17.1H363.58m0-1H23.93a9.55,9.55,0,1,0,0,19.1H363.58a9.55,9.55,0,0,0,0-19.1Z" transform="translate(-4.82 -8.57)"/></g></g></svg>